<svg width="1440" height="900" viewBox="0 0 1440 900" xmlns="http://www.w3.org/2000/svg">
  <g stroke="#FFFFFF" stroke-width="1" opacity="0.2">
    <!-- Nodes -->
    <circle cx="100" cy="150" r="4" fill="#FFFFFF" />
    <circle cx="200" cy="100" r="4" fill="#FFFFFF" />
    <circle cx="300" cy="200" r="4" fill="#FFFFFF" />
    <circle cx="150" cy="300" r="4" fill="#FFFFFF" />
    <circle cx="400" cy="150" r="4" fill="#FFFFFF" />
    <circle cx="500" cy="250" r="4" fill="#FFFFFF" />
    <circle cx="600" cy="100" r="4" fill="#FFFFFF" />
    <circle cx="700" cy="200" r="4" fill="#FFFFFF" />
    <circle cx="800" cy="300" r="4" fill="#FFFFFF" />
    <circle cx="900" cy="150" r="4" fill="#FFFFFF" />
    <circle cx="1000" cy="250" r="4" fill="#FFFFFF" />
    <circle cx="1100" cy="100" r="4" fill="#FFFFFF" />
    <circle cx="1200" cy="200" r="4" fill="#FFFFFF" />
    <circle cx="1300" cy="300" r="4" fill="#FFFFFF" />
    <circle cx="100" cy="450" r="4" fill="#FFFFFF" />
    <circle cx="200" cy="500" r="4" fill="#FFFFFF" />
    <circle cx="300" cy="600" r="4" fill="#FFFFFF" />
    <circle cx="400" cy="550" r="4" fill="#FFFFFF" />
    <circle cx="500" cy="650" r="4" fill="#FFFFFF" />
    <circle cx="600" cy="500" r="4" fill="#FFFFFF" />
    <circle cx="700" cy="600" r="4" fill="#FFFFFF" />
    <circle cx="800" cy="700" r="4" fill="#FFFFFF" />
    <circle cx="900" cy="550" r="4" fill="#FFFFFF" />
    <circle cx="1000" cy="650" r="4" fill="#FFFFFF" />
    <circle cx="1100" cy="500" r="4" fill="#FFFFFF" />
    <circle cx="1200" cy="600" r="4" fill="#FFFFFF" />
    <circle cx="1300" cy="700" r="4" fill="#FFFFFF" />
    
    <!-- Connections -->
    <line x1="100" y1="150" x2="200" y2="100" />
    <line x1="200" y1="100" x2="300" y2="200" />
    <line x1="300" y1="200" x2="150" y2="300" />
    <line x1="150" y1="300" x2="100" y2="150" />
    <line x1="300" y1="200" x2="400" y2="150" />
    <line x1="400" y1="150" x2="500" y2="250" />
    <line x1="500" y1="250" x2="600" y2="100" />
    <line x1="600" y1="100" x2="700" y2="200" />
    <line x1="700" y1="200" x2="800" y2="300" />
    <line x1="800" y1="300" x2="900" y2="150" />
    <line x1="900" y1="150" x2="1000" y2="250" />
    <line x1="1000" y1="250" x2="1100" y2="100" />
    <line x1="1100" y1="100" x2="1200" y2="200" />
    <line x1="1200" y1="200" x2="1300" y2="300" />
    <line x1="100" y1="450" x2="200" y2="500" />
    <line x1="200" y1="500" x2="300" y2="600" />
    <line x1="300" y1="600" x2="400" y2="550" />
    <line x1="400" y1="550" x2="500" y2="650" />
    <line x1="500" y1="650" x2="600" y2="500" />
    <line x1="600" y1="500" x2="700" y2="600" />
    <line x1="700" y1="600" x2="800" y2="700" />
    <line x1="800" y1="700" x2="900" y2="550" />
    <line x1="900" y1="550" x2="1000" y2="650" />
    <line x1="1000" y1="650" x2="1100" y2="500" />
    <line x1="1100" y1="500" x2="1200" y2="600" />
    <line x1="1200" y1="600" x2="1300" y2="700" />
    <line x1="200" y1="100" x2="400" y2="150" />
    <line x1="300" y1="200" x2="500" y2="250" />
    <line x1="400" y1="150" x2="600" y2="100" />
    <line x1="500" y1="250" x2="700" y2="200" />
    <line x1="600" y1="100" x2="800" y2="300" />
    <line x1="700" y1="200" x2="900" y2="150" />
    <line x1="800" y1="300" x2="1000" y2="250" />
    <line x1="900" y1="150" x2="1100" y2="100" />
    <line x1="1000" y1="250" x2="1200" y2="200" />
    <line x1="1100" y1="100" x2="1300" y2="300" />
    <line x1="200" y1="500" x2="400" y2="550" />
    <line x1="300" y1="600" x2="500" y2="650" />
    <line x1="400" y1="550" x2="600" y2="500" />
    <line x1="500" y1="650" x2="700" y2="600" />
    <line x1="600" y1="500" x2="800" y2="700" />
    <line x1="700" y1="600" x2="900" y2="550" />
    <line x1="800" y1="700" x2="1000" y2="650" />
    <line x1="900" y1="550" x2="1100" y2="500" />
    <line x1="1000" y1="650" x2="1200" y2="600" />
    <line x1="1100" y1="500" x2="1300" y2="700" />
    <line x1="150" y1="300" x2="300" y2="600" />
    <line x1="400" y1="150" x2="600" y2="500" />
    <line x1="700" y1="200" x2="900" y2="550" />
    <line x1="1000" y1="250" x2="1200" y2="600" />
  </g>
</svg>
